<?xml version="1.0" encoding="utf-8"?>
<!-- REFERENCE: https://www.svgrepo.com/svg/480081/castle-illustration-9 -->

<!DOCTYPE svg PUBLIC "-//W3C//DTD SVG 1.1//EN" "http://www.w3.org/Graphics/SVG/1.1/DTD/svg11.dtd">
<!-- Uploaded to: SVG Repo, www.svgrepo.com, Generator: SVG Repo Mixer Tools -->
<svg version="1.1" id="_x32_" xmlns="http://www.w3.org/2000/svg" xmlns:xlink="http://www.w3.org/1999/xlink" viewBox="0 100 512 300" xml:space="preserve">
	<style type="text/css">
		.st0{fill:#FFF;}
	</style>
	<g>
		<rect class="st0" x="74.084" y="227.592" width="21.893" height="41.591"/>
		<rect class="st0" x="416.023" y="227.592" width="21.894" height="41.591"/>
		<path class="st0" d="M504.334,114.771h-46.343h-8.032h-45.977h-8.029H341.94v68.966h-27.915h-8.032h-45.98h-8.026h-45.98h-8.032
			H170.06v-68.966h-54.013h-8.029H62.042h-8.032H0v83.936h6.383v198.522h145.248h4.376h84.667h11.568h9.332h9.752h84.667h4.376
			h145.248V198.707H512v-83.936H504.334z M147.249,380.808H22.807V195.423h124.442V380.808z M153.636,153.086v29.194h-29.194H99.627
			H70.43H45.618H25.181H16.42v-51.081h29.197v21.887H70.43v-21.887h29.197v21.887h24.816v-21.887h29.194V153.086z M351.611,380.808
			h-73.613v-44.191c0-11.645-9.443-21.088-21.091-21.088c-11.646,0-21.088,9.443-21.088,21.088v44.191h-75.43v-116.42h191.222
			V380.808z M351.611,222.058v29.194h-29.194h-24.812h-29.198h-24.815h-20.436h-8.761h-24.812H169.15h-8.761v-51.088h29.194v21.894
			h24.812v-21.894h29.197v21.894h24.815v-21.894h29.198v21.894h24.812v-21.894h29.194V222.058z M489.193,380.808H364.751V195.423
			h124.442V380.808z M495.58,153.086v29.194h-29.197H441.57h-29.197h-24.815h-20.433h-8.761v-51.081h29.194v21.887h24.815v-21.887
			h29.197v21.887h24.812v-21.887h29.197V153.086z"/>
	</g>
</svg>